<?xml version="1.0" standalone="no"?>
<!DOCTYPE svg PUBLIC "-//W3C//DTD SVG 20010904//EN"
 "http://www.w3.org/TR/2001/REC-SVG-20010904/DTD/svg10.dtd">
<svg version="1.0" xmlns="http://www.w3.org/2000/svg"
 width="960.000000pt" height="640.000000pt" viewBox="0 0 960.000000 640.000000"
 preserveAspectRatio="xMidYMid meet">

<g transform="translate(0.000000,640.000000) scale(0.100000,-0.100000)"
fill="#000000" stroke="none">
<path d="M4710 6380 c-13 -24 -26 -25 -46 -5 -13 12 -20 13 -37 3 -12 -7 -29
-12 -37 -13 -57 -5 -56 -5 -40 -15 8 -5 12 -10 8 -11 -25 -5 -34 -4 -40 5 -4
6 -15 2 -26 -11 -13 -16 -22 -19 -29 -12 -8 8 -17 5 -31 -9 -17 -17 -27 -19
-50 -12 -25 7 -32 5 -41 -14 -11 -21 -11 -21 -5 2 4 18 1 22 -20 22 -14 0 -28
-4 -31 -10 -3 -5 -16 -10 -28 -10 -53 0 -78 -6 -87 -20 -14 -22 -12 -30 8 -30
13 -1 11 -4 -8 -15 -38 -21 -60 -19 -55 6 3 15 0 19 -11 15 -9 -3 -19 -6 -22
-6 -4 0 0 -4 8 -10 17 -11 11 -19 -19 -25 -14 -2 -21 1 -21 11 0 9 -10 4 -30
-15 -43 -41 -85 -57 -115 -43 -18 9 -24 8 -29 -4 -3 -9 -10 -13 -14 -10 -5 3
-16 -4 -25 -15 -17 -19 -43 -27 -32 -9 4 6 -1 7 -11 3 -13 -5 -15 -3 -9 7 5 9
4 11 -4 6 -6 -4 -8 -12 -5 -18 4 -6 0 -15 -7 -20 -10 -6 -6 -7 11 -2 22 6 23
5 11 -9 -7 -9 -17 -14 -22 -11 -5 3 -9 0 -9 -7 0 -9 -3 -9 -14 0 -10 9 -16 9
-21 1 -5 -8 -11 -8 -20 0 -20 17 -32 5 -33 -30 0 -20 4 -30 11 -27 7 2 11 11
9 21 -3 16 13 23 21 9 5 -10 -18 -54 -29 -56 -5 -1 -8 -5 -7 -9 2 -5 -1 -8 -6
-8 -5 0 -17 -3 -27 -7 -12 -4 -15 -3 -10 5 5 8 0 12 -13 12 -12 0 -20 -3 -20
-7 4 -27 -3 -35 -26 -29 -18 5 -25 2 -25 -8 0 -10 6 -13 18 -10 12 4 11 0 -7
-15 -12 -12 -27 -19 -31 -16 -4 3 -10 -5 -13 -16 -4 -13 -10 -18 -17 -14 -7 4
-15 3 -19 -3 -4 -6 -21 -12 -38 -14 -22 -1 -35 -9 -42 -25 -6 -13 -17 -23 -26
-23 -22 0 -18 -18 6 -25 19 -6 19 -8 5 -24 -9 -10 -16 -23 -16 -29 0 -7 -4
-12 -10 -12 -13 0 -13 13 2 28 9 9 7 16 -6 31 -16 18 -16 20 2 32 10 8 24 24
31 37 7 14 18 21 27 18 8 -3 14 -1 14 5 0 6 5 7 12 3 7 -4 8 -3 4 5 -4 6 -12
9 -17 6 -16 -11 -10 6 17 41 15 19 31 34 36 34 6 0 5 -7 -2 -15 -7 -8 -8 -15
-3 -15 5 0 19 17 30 38 11 20 25 36 31 35 6 -2 9 4 6 12 -9 21 -22 19 -29 -6
-4 -11 -9 -18 -12 -16 -11 11 -122 -117 -207 -237 -16 -23 -42 -56 -57 -74
-16 -18 -36 -47 -44 -65 -8 -18 -28 -54 -45 -82 -29 -49 -73 -137 -123 -246
-30 -65 -62 -174 -81 -275 -8 -39 -19 -81 -25 -92 -6 -11 -11 -33 -11 -49 0
-15 -11 -72 -25 -125 -23 -91 -24 -108 -21 -325 3 -125 9 -246 15 -268 12 -42
24 -99 41 -187 5 -29 14 -62 19 -73 6 -11 24 -60 40 -110 53 -160 58 -170 131
-300 12 -22 27 -46 32 -52 7 -9 5 -15 -7 -19 -11 -5 -13 -9 -5 -14 7 -4 -1
-10 -20 -14 -22 -4 -47 0 -76 14 -25 10 -51 17 -60 13 -9 -3 -28 9 -50 33 -20
22 -33 31 -30 21 4 -13 2 -16 -7 -10 -6 4 -16 8 -21 8 -5 0 -15 11 -24 25
l-14 25 21 -25 c11 -14 21 -20 21 -14 0 15 -35 46 -43 37 -4 -3 -14 2 -23 13
-12 15 -15 16 -10 2 11 -38 58 -99 82 -109 14 -5 28 -17 31 -27 4 -15 101 -69
158 -87 20 -7 20 -6 1 9 -25 20 -7 21 20 2 18 -14 18 -15 -11 -48 l-30 -33 30
26 c17 15 37 24 45 22 13 -4 13 -3 0 6 -13 9 -13 11 3 11 9 0 17 6 17 13 0 9
2 9 8 0 4 -7 18 -11 30 -8 24 4 82 -13 82 -24 0 -5 36 -44 80 -88 44 -44 80
-85 80 -91 0 -6 4 -14 10 -17 6 -4 7 1 3 11 -5 13 -3 15 13 6 41 -22 55 -50
70 -142 17 -107 20 -113 45 -107 11 3 17 1 13 -4 -3 -5 -11 -9 -17 -9 -11 0
-78 -43 -206 -130 -28 -19 -54 -44 -57 -54 -4 -11 -10 -24 -15 -30 -5 -6 -19
-23 -30 -39 -11 -15 -25 -24 -31 -21 -7 4 -8 2 -4 -4 4 -6 -10 -30 -31 -54
-70 -81 -67 -83 12 -6 101 98 103 99 81 63 l-19 -30 25 23 c13 12 28 19 31 15
4 -3 7 1 7 11 0 9 4 15 8 12 4 -2 34 18 66 45 32 27 65 49 74 49 9 0 26 7 36
15 28 21 35 19 28 -10 -4 -14 -40 -53 -81 -88 -41 -34 -104 -101 -140 -149
-66 -86 -126 -187 -117 -195 9 -9 24 7 31 34 10 41 103 170 168 235 54 54 198
145 238 151 9 2 23 8 31 14 7 6 28 18 47 28 33 16 35 16 71 -4 21 -12 51 -21
66 -21 16 0 49 -14 73 -30 51 -35 89 -38 167 -13 30 9 56 14 58 12 3 -3 6 -35
7 -73 1 -38 5 -62 10 -55 4 8 9 11 11 9 19 -30 26 -51 21 -69 -3 -12 -1 -21 6
-21 6 0 11 6 11 13 0 6 5 4 11 -5 5 -10 21 -18 34 -18 30 0 43 -18 18 -26 -40
-12 -48 -23 -59 -78 -11 -51 -91 -255 -150 -382 -13 -28 -24 -56 -24 -61 0 -6
-12 -22 -26 -37 -30 -29 -45 -90 -35 -138 6 -31 8 -29 44 51 47 101 91 217
112 288 32 110 80 197 146 266 41 43 73 67 87 67 15 0 20 5 16 15 -3 8 1 38
10 67 9 29 30 103 47 163 17 61 48 164 69 230 44 140 62 223 27 130 -28 -77
-36 -88 -50 -77 -17 13 -67 24 -67 14 0 -4 -24 -8 -52 -9 -38 -1 -59 4 -73 17
-13 11 -34 17 -62 16 -29 -1 -43 3 -43 11 0 7 -4 13 -10 13 -5 0 -10 7 -10 16
0 8 -3 13 -7 11 -5 -3 -14 1 -21 9 -7 8 -9 14 -5 14 4 0 3 4 -3 8 -17 12 -120
231 -150 317 -29 88 -31 133 -17 425 4 80 6 174 6 210 -1 36 -3 134 -5 218 -2
83 -1 152 2 152 3 0 10 10 15 23 11 25 87 56 93 37 2 -5 8 -8 12 -5 5 3 12
-10 16 -30 6 -35 6 -35 63 -36 176 -3 291 10 291 34 0 4 -8 6 -19 2 -18 -5
-36 16 -24 29 10 10 25 7 18 -4 -9 -15 4 -12 20 3 7 8 42 17 76 21 35 3 68 11
73 16 14 14 -15 41 -66 60 -30 11 -44 22 -48 40 -5 21 -7 22 -13 8 -5 -15 -9
-16 -33 -3 -26 13 -51 13 -221 2 -7 0 -13 -3 -13 -7 0 -4 -12 -6 -26 -4 -15 1
-38 -2 -53 -7 -46 -18 -9 9 64 46 39 19 68 35 65 35 -3 0 -38 -11 -78 -24 -40
-13 -72 -19 -72 -15 0 5 -7 9 -16 9 -9 0 -12 5 -8 13 5 8 2 7 -10 -2 -13 -11
-19 -12 -29 -2 -9 10 -8 11 8 6 15 -5 12 0 -10 19 -16 14 -35 26 -41 26 -7 0
-14 6 -17 13 -6 17 3 66 14 72 4 3 6 12 3 19 -3 8 4 16 16 19 11 3 20 9 19 14
-4 23 2 53 12 53 5 0 7 -4 4 -10 -11 -17 11 -11 28 8 20 22 22 36 5 26 -7 -4
-5 2 5 12 15 17 19 17 27 4 8 -12 11 -13 19 -1 7 11 9 11 14 0 4 -9 6 -10 6
-2 1 9 8 9 29 -2 15 -7 50 -22 77 -32 28 -11 49 -25 48 -31 -2 -7 4 -12 13
-12 8 0 12 -4 9 -10 -3 -5 -2 -10 4 -10 5 0 13 5 16 11 5 7 13 4 26 -7 10 -9
27 -14 39 -11 11 3 18 1 14 -4 -5 -8 9 -13 29 -10 4 0 6 -4 5 -11 -3 -11 2
-13 34 -17 6 0 8 -4 5 -8 -11 -11 14 -32 30 -26 11 4 14 2 9 -5 -4 -7 -3 -12
3 -12 5 0 12 6 14 13 4 9 8 8 16 -3 8 -12 13 -12 23 -2 9 9 9 12 -5 12 -21 0
-21 7 -2 26 8 9 15 12 15 7 0 -4 12 5 26 22 29 34 26 70 -9 95 -33 23 -160 71
-174 65 -7 -2 -13 0 -13 5 0 6 -5 10 -11 10 -5 0 -7 -5 -3 -11 3 -6 -8 -4 -24
5 -34 18 -72 21 -72 7 0 -6 -21 -3 -47 6 -34 12 -48 13 -51 5 -2 -7 -17 -12
-32 -12 -16 0 -32 -4 -35 -10 -3 -5 -16 -10 -28 -10 -30 0 -118 -62 -112 -78
3 -7 0 -10 -5 -7 -6 4 -20 -4 -31 -17 -18 -20 -20 -21 -14 -3 4 11 13 41 20
66 43 157 151 369 244 477 10 12 22 22 25 22 4 0 31 24 61 54 30 29 72 61 92
71 21 10 45 24 54 32 17 14 144 65 167 66 6 0 12 4 12 8 0 4 9 5 21 2 12 -3
24 -1 28 6 4 6 17 13 30 16 12 2 35 11 52 19 16 8 27 10 24 5 -4 -6 20 -7 62
-4 37 3 91 7 119 8 28 1 59 9 69 17 13 10 16 11 11 2 -6 -10 -2 -13 15 -11 37
3 129 -13 129 -23 0 -5 9 -4 19 2 14 7 22 7 26 0 4 -6 11 -8 16 -5 5 4 9 1 9
-5 0 -6 4 -9 9 -5 5 3 12 1 16 -5 4 -6 10 -8 15 -5 5 3 17 1 27 -5 10 -5 31
-15 48 -21 21 -7 26 -12 16 -18 -10 -6 -9 -10 4 -15 9 -3 13 -10 10 -16 -3 -6
1 -7 9 -4 9 3 16 1 16 -4 0 -6 10 -14 21 -17 13 -4 17 -10 11 -14 -7 -4 1 -14
18 -26 17 -11 30 -24 30 -29 0 -4 21 -29 46 -55 26 -25 63 -72 84 -104 20 -31
40 -54 45 -50 4 5 5 3 2 -4 -4 -6 -1 -17 6 -25 21 -21 30 -51 13 -45 -11 4
-12 -1 -6 -26 4 -18 13 -45 20 -62 7 -16 14 -39 16 -50 24 -118 30 -161 23
-169 -5 -5 -27 6 -52 27 -44 35 -117 81 -117 72 0 -3 -9 4 -20 15 -35 35 -100
62 -129 54 -14 -4 -44 -8 -66 -9 -42 -1 -129 -30 -155 -50 -8 -7 -31 -15 -51
-19 -21 -4 -43 -13 -50 -22 -6 -8 -19 -14 -28 -12 -9 1 -32 -13 -51 -32 -26
-27 -34 -44 -35 -75 -1 -22 -12 -60 -24 -85 -38 -77 -40 -169 -5 -204 23 -24
69 3 84 49 6 19 16 35 21 35 6 0 8 4 5 9 -3 5 18 31 47 59 75 74 94 88 127
102 17 7 30 16 30 21 0 5 8 9 18 9 9 0 26 7 36 15 10 8 23 12 27 9 5 -3 9 0 9
5 0 6 -5 11 -11 11 -5 0 -7 5 -4 11 4 6 13 8 21 5 8 -3 14 -2 14 3 0 4 21 18
46 30 46 23 46 23 106 6 32 -10 61 -22 64 -27 3 -4 15 -8 26 -8 12 0 19 -3 16
-6 -4 -3 11 -21 33 -41 21 -19 38 -38 37 -41 -1 -4 2 -18 6 -31 11 -31 -5 -46
-34 -31 -12 6 -30 13 -42 15 -11 2 -27 10 -36 17 -8 7 -25 12 -36 10 -14 -2
-17 0 -8 6 10 7 -58 8 -78 1 -3 -1 -8 -1 -12 0 -5 0 -8 -2 -8 -6 1 -5 23 -18
51 -31 27 -13 47 -27 44 -32 -3 -5 0 -10 6 -12 9 -3 9 -9 1 -25 -10 -18 -8
-22 10 -26 12 -4 19 -9 16 -12 -3 -4 -21 1 -40 11 -31 16 -32 16 -19 0 14 -17
12 -17 -20 -11 -18 4 -43 6 -54 6 -27 -1 -109 -9 -112 -12 -3 -2 -4 -2 -53
-13 -87 -20 -229 -104 -214 -127 3 -5 33 -9 67 -9 39 0 57 4 48 9 -11 7 -8 13
14 27 23 15 28 15 36 3 5 -8 9 -19 9 -25 0 -12 43 -34 65 -34 17 0 20 -16 5
-25 -5 -3 -10 -2 -10 3 0 5 -7 9 -15 9 -8 0 -15 -7 -15 -14 0 -8 -4 -11 -10
-8 -5 3 -10 2 -10 -4 0 -10 61 -31 93 -31 10 0 16 -3 14 -7 -3 -5 30 -6 74 -3
43 3 79 2 79 -2 0 -5 32 -8 71 -8 l72 0 -7 32 c-3 17 -13 39 -22 49 -13 15
-13 17 3 24 10 5 26 7 37 6 10 -2 31 3 48 10 22 9 26 14 16 21 -8 5 -1 6 17 1
17 -4 38 -7 47 -7 9 0 14 -4 12 -8 -3 -4 2 -8 10 -8 9 0 16 6 16 13 1 25 39
-50 42 -82 1 -18 5 -34 9 -37 7 -4 4 -65 -5 -133 -3 -18 -13 -42 -23 -54 -12
-14 -13 -18 -3 -12 12 6 13 5 3 -6 -7 -7 -13 -21 -13 -31 0 -11 -5 -15 -14
-12 -14 5 -43 -32 -38 -48 1 -5 -5 -8 -14 -8 -8 0 -12 5 -9 10 3 6 1 10 -4 10
-14 0 -14 -17 -1 -25 6 -3 10 -12 9 -18 0 -9 -2 -9 -6 1 -2 6 -9 12 -14 12 -6
0 -7 -4 -4 -10 3 -5 -1 -11 -9 -11 -9 -1 -22 -2 -28 -3 -7 0 -13 -7 -13 -13 0
-7 -15 -26 -32 -42 -18 -17 -33 -34 -33 -39 0 -6 -7 -13 -16 -16 -8 -3 -13
-10 -10 -15 3 -5 -4 -11 -15 -14 -14 -4 -18 -10 -13 -18 5 -9 2 -10 -10 -6
-10 4 -15 3 -11 -3 3 -6 2 -10 -3 -10 -6 0 -9 -7 -8 -16 0 -10 -19 -30 -46
-48 -26 -17 -45 -36 -43 -43 2 -7 -3 -19 -11 -28 -14 -13 -14 -15 0 -15 8 0
18 -4 21 -10 3 -5 0 -7 -8 -4 -8 3 -17 -2 -21 -11 -3 -9 -2 -14 2 -11 5 3 8
-17 8 -44 0 -28 -4 -50 -8 -50 -5 0 -8 -4 -8 -9 0 -5 9 -7 20 -4 16 4 19 2 14
-13 -12 -33 -36 -55 -56 -48 -13 4 -18 0 -18 -13 -1 -17 -2 -17 -15 1 -11 14
-15 16 -15 5 0 -9 -3 -10 -8 -3 -4 6 -27 12 -51 12 -26 1 -53 9 -64 19 -12 11
-17 12 -12 4 5 -10 4 -12 -3 -7 -7 4 -12 12 -12 17 0 6 -11 25 -25 44 -19 24
-22 34 -13 38 9 3 6 7 -7 13 -11 4 -26 13 -32 20 -7 7 -16 14 -21 16 -4 1 -28
29 -51 61 -24 31 -46 57 -50 57 -11 0 -99 88 -93 94 5 6 -14 9 -21 4 -2 -2
-11 3 -20 10 -13 11 -17 10 -26 -5 -6 -10 -11 -12 -11 -5 0 16 -15 15 -33 -3
-9 -9 -17 -11 -19 -4 -2 5 -11 7 -21 3 -10 -3 -16 -12 -13 -19 10 -27 -8 -24
-20 2 -11 25 -12 26 -13 6 -1 -21 -32 -40 -58 -35 -8 2 -10 -3 -6 -14 4 -11 3
-15 -5 -10 -6 3 -13 2 -17 -4 -4 -6 -11 -8 -16 -5 -5 4 -12 -1 -15 -10 -4 -9
-24 -34 -44 -55 -21 -22 -41 -55 -45 -72 -4 -18 -9 -41 -11 -50 -4 -13 0 -18
14 -18 27 0 48 -26 34 -42 -5 -7 -13 -34 -17 -59 -6 -42 -4 -48 19 -67 l27
-21 -19 -77 c-21 -84 -20 -113 4 -93 11 9 14 8 14 -1 0 -19 -30 -150 -45 -200
-28 -88 -105 -413 -100 -418 7 -7 9 -4 33 58 30 79 27 33 -9 -110 -16 -69 -31
-137 -31 -151 -1 -26 -1 -26 -20 -7 -19 19 -20 19 -37 1 -17 -17 -17 -19 11
-35 20 -13 28 -26 28 -47 0 -16 8 -43 17 -59 15 -27 16 -40 5 -124 -11 -89
-44 -209 -64 -235 -15 -19 1 -35 28 -29 24 6 24 5 18 -36 -9 -57 -16 -62 -47
-38 l-26 21 -16 -37 c-8 -20 -15 -45 -15 -55 0 -18 30 -104 52 -147 11 -22 12
-21 24 13 6 20 15 53 18 73 47 280 73 394 105 457 16 31 24 58 20 61 -12 7
-11 44 0 44 5 0 12 18 16 40 8 47 -2 60 -64 87 -42 18 -53 33 -26 33 8 0 15
-5 15 -11 0 -5 4 -7 10 -4 6 3 10 1 10 -6 0 -7 3 -10 6 -6 12 12 67 -50 67
-76 0 -17 6 -29 18 -32 14 -5 17 -13 14 -28 -5 -19 3 -27 51 -52 90 -48 96
-68 102 -313 l5 -203 68 -35 c80 -40 99 -68 99 -146 l0 -53 70 -32 c39 -17 68
-28 66 -24 -11 17 15 32 63 36 29 2 60 10 70 17 9 8 36 31 59 52 24 21 46 35
49 32 3 -3 -6 -26 -21 -52 -14 -25 -26 -52 -26 -59 0 -21 -91 -115 -111 -115
-14 0 -19 -7 -19 -30 0 -16 3 -30 8 -30 20 0 73 43 87 70 9 18 31 50 48 73 18
23 45 69 60 102 39 82 107 193 107 175 0 -13 1 -13 10 0 8 13 10 12 10 -2 0
-10 -6 -18 -13 -18 -8 0 -14 -6 -15 -12 -5 -50 -15 -76 -48 -135 -21 -38 -52
-88 -70 -113 -17 -25 -53 -83 -79 -130 -27 -47 -55 -93 -63 -102 -21 -25 -50
-145 -74 -306 -6 -45 -15 -82 -19 -82 -4 0 -5 17 -1 38 3 20 6 58 7 84 0 27 3
48 8 48 4 0 7 5 7 10 0 6 -3 10 -8 10 -14 0 -62 -121 -62 -158 0 -26 -7 -47
-22 -64 -25 -28 -146 -98 -170 -98 -22 0 -55 41 -63 78 -7 35 -20 40 -46 16
-9 -8 -27 -16 -39 -17 -13 -1 -35 -13 -49 -28 -14 -14 -36 -31 -47 -37 -40
-21 -104 -40 -110 -31 -5 9 14 87 27 104 13 19 22 162 10 169 -6 4 -9 11 -6
16 3 5 1 11 -5 15 -5 3 -10 0 -11 -7 0 -7 -4 -4 -9 7 -7 17 -9 17 -9 3 -1 -25
-21 -23 -21 2 0 11 7 20 15 20 8 0 15 9 15 20 0 11 4 20 10 20 5 0 22 12 38
27 16 16 42 40 58 55 39 35 74 78 74 89 0 5 16 25 36 44 20 19 31 35 25 35 -6
0 -11 9 -11 20 0 11 4 20 9 20 9 0 24 32 27 55 11 114 18 145 30 145 10 0 12
5 5 17 -5 10 -18 40 -28 67 -20 55 -53 78 -81 58 -9 -7 -32 -22 -50 -33 -23
-15 -31 -26 -27 -39 3 -10 2 -21 -3 -24 -5 -3 -7 -17 -5 -30 3 -16 -3 -36 -16
-55 -12 -16 -21 -32 -21 -35 0 -6 -20 -32 -57 -74 -13 -14 -23 -34 -23 -45 0
-12 -11 -32 -24 -46 -24 -26 -43 -106 -27 -115 5 -3 12 -50 15 -105 8 -107 9
-105 -54 -184 -24 -30 -70 -50 -101 -43 -19 4 -41 -1 -64 -14 l-35 -20 -16 38
c-8 20 -18 64 -20 96 l-5 59 97 94 c54 52 109 101 124 109 l25 16 -8 111 c-4
62 -6 152 -4 200 4 96 -2 100 -27 17 -33 -107 -47 -130 -76 -130 -28 0 -50 16
-50 37 0 8 12 13 30 13 37 0 49 23 26 49 -9 10 -16 32 -16 50 l0 33 -34 -26
c-19 -14 -40 -26 -46 -26 -6 0 -13 -7 -16 -15 -5 -11 -18 -15 -48 -13 -22 2
-55 -3 -73 -11 -35 -14 -43 -35 -48 -121 -1 -30 -10 -59 -24 -79 -30 -41 -41
-128 -28 -214 9 -64 8 -69 -13 -92 -21 -22 -21 -24 -3 -39 10 -8 51 -46 91
-83 40 -37 80 -67 88 -65 9 2 14 -6 14 -25 0 -22 -9 -33 -42 -52 -23 -13 -43
-20 -45 -15 -2 7 -48 9 -95 5 -12 -2 -7 -111 5 -111 7 0 6 -4 -3 -10 -8 -5
-10 -10 -3 -10 12 0 35 -55 27 -63 -6 -6 71 -86 106 -110 19 -14 22 -20 12
-26 -11 -7 -10 -10 3 -15 15 -5 14 -9 -5 -33 -11 -14 -17 -29 -12 -32 15 -9 8
-55 -8 -63 -10 -5 -8 -7 9 -7 13 -1 21 -4 18 -8 -4 -3 2 -12 13 -20 11 -8 20
-20 20 -28 0 -8 7 -11 20 -8 11 3 20 0 20 -6 0 -6 -7 -11 -15 -11 -8 0 -15 -5
-15 -11 0 -6 7 -9 15 -5 8 3 15 2 15 -3 0 -5 -7 -14 -15 -21 -18 -15 -20 -34
-3 -24 8 5 9 2 5 -9 -6 -16 18 -17 297 -17 l303 0 7 125 c4 86 3 132 -5 147
-8 15 -8 22 1 28 9 5 9 9 1 14 -12 8 -15 65 -3 82 4 6 22 19 39 29 19 11 28
22 22 26 -6 3 -2 9 10 12 13 3 19 1 14 -5 -8 -14 8 -4 106 62 l29 19 16 -24
c8 -13 17 -30 18 -37 2 -7 7 -16 13 -20 6 -5 6 -11 -1 -18 -8 -8 -8 -26 -3
-56 5 -24 7 -61 5 -82 -3 -28 2 -41 18 -55 11 -10 15 -16 9 -12 -10 4 -13 -8
-12 -47 1 -29 -4 -66 -10 -82 -6 -16 -15 -46 -20 -68 l-9 -39 108 2 c96 1 108
3 107 18 -1 13 -8 16 -26 14 -23 -4 -24 -3 -8 7 9 6 15 16 12 21 -4 5 -10 7
-15 4 -5 -3 -9 14 -8 39 0 31 -6 54 -21 75 -12 17 -20 31 -16 31 3 0 -1 13
-10 30 -8 16 -15 32 -15 35 0 3 0 6 -1 8 -13 43 -16 106 -5 111 6 2 1 13 -11
24 -23 23 -21 59 3 69 23 8 17 68 -9 100 -26 30 -45 99 -25 87 7 -5 9 -2 6 8
-4 8 -2 21 3 29 5 8 9 9 9 2 0 -6 8 -9 18 -6 12 3 24 -4 34 -19 19 -28 70
-195 83 -273 4 -20 29 -168 40 -240 4 -22 9 -60 10 -85 2 -25 5 -47 6 -50 1
-3 1 -8 0 -12 0 -4 6 -5 15 -1 9 3 14 0 12 -8 -2 -10 8 -14 37 -14 40 0 40 0
39 37 -1 21 -15 72 -33 115 -35 89 -84 261 -116 408 -9 42 -10 63 -3 70 8 7 9
6 4 -2 -3 -6 -1 -15 5 -18 5 -4 8 -12 6 -19 -3 -6 2 -17 9 -24 12 -11 14 -8
14 18 0 20 -11 42 -35 68 -51 57 -100 205 -92 280 3 30 10 59 15 64 6 6 34
-32 71 -96 34 -57 69 -110 78 -117 39 -33 131 -201 157 -288 9 -30 32 -78 53
-108 37 -53 52 -69 33 -34 -5 11 -21 52 -35 93 -14 40 -30 81 -35 90 -6 10
-10 25 -10 33 0 9 -4 14 -9 11 -11 -7 -23 22 -15 35 3 6 -6 19 -21 31 -28 22
-48 60 -49 93 -1 11 -8 20 -16 20 -12 0 -15 14 -16 63 0 60 2 64 28 78 15 8
28 19 28 24 0 6 18 28 40 50 42 42 51 70 24 70 -11 0 -14 6 -9 20 4 12 1 22
-7 25 -15 6 -22 109 -10 140 44 106 80 160 136 204 33 25 74 51 90 57 17 6 36
20 42 32 6 12 14 19 17 15 4 -3 7 -1 7 4 0 12 103 123 114 123 4 0 35 28 69
63 l62 63 75 -1 c99 0 109 8 97 83 -4 31 -9 72 -11 90 -2 18 -6 35 -9 39 -7 7
-1 44 15 85 10 27 11 27 113 43 6 1 18 3 27 3 9 1 29 21 45 44 l29 43 -121 29
c-66 15 -135 33 -154 38 -46 14 -286 135 -298 150 -17 22 -54 158 -47 171 4 7
4 9 -1 5 -12 -11 -35 11 -35 33 0 11 -4 19 -10 19 -22 0 -8 26 19 36 21 8 30
20 35 45 10 55 12 62 26 97 12 31 13 32 31 16 12 -11 24 -14 36 -8 15 7 14 8
-9 12 -21 2 -28 9 -27 25 0 12 3 16 6 10 8 -22 26 -14 20 8 -5 18 -2 20 20 14
22 -5 25 -3 20 15 -5 20 -3 21 52 14 58 -6 114 6 196 42 22 10 43 18 47 18 4
1 15 11 23 24 9 12 21 19 27 16 6 -4 8 -2 4 4 -3 6 -2 13 4 17 5 3 10 -2 10
-12 1 -17 1 -17 11 0 6 9 15 14 21 11 7 -4 8 -2 4 4 -4 6 0 22 9 35 8 13 12
27 8 31 -4 4 -3 10 2 14 37 25 102 218 105 307 2 85 2 116 -4 180 -4 50 -3 63
4 45 9 -24 9 -23 5 5 -3 17 -9 55 -14 85 -5 31 -28 127 -51 215 -57 217 -67
264 -60 305 l7 35 11 -28 c7 -16 12 -33 12 -39 0 -6 3 -9 6 -5 3 3 -1 27 -9
52 -15 42 -15 58 3 203 11 86 24 175 30 197 54 199 75 421 50 517 -34 127 -30
119 -140 327 -20 36 -54 94 -78 129 -23 35 -42 66 -42 68 0 3 -7 13 -16 22 -9
8 -40 52 -70 96 -29 45 -61 92 -70 106 -37 54 -192 203 -256 246 -76 51 -218
124 -240 124 -9 0 -28 10 -44 23 -28 22 -33 22 -381 25 -345 3 -352 2 -363
-18z m436 -205 c24 -18 19 -18 -31 0 -33 12 -36 14 -14 15 14 0 34 -7 45 -15z
m-89 -11 c-3 -3 -12 -4 -19 -1 -8 3 -5 6 6 6 11 1 17 -2 13 -5z m-171 -35 c5
-8 -1 -10 -20 -7 -20 4 -24 2 -17 -5 20 -20 11 -26 -16 -11 -16 7 -39 15 -53
15 -14 1 -5 5 20 9 70 11 78 11 86 -1z m41 -5 c-3 -3 -12 -4 -19 -1 -8 3 -5 6
6 6 11 1 17 -2 13 -5z m-178 -18 c-2 -2 -18 -7 -34 -10 l-30 -6 30 14 c26 12
46 14 34 2z m170 -5 c10 -7 7 -9 -12 -8 -15 1 -27 5 -27 10 0 10 22 9 39 -2z
m-241 -36 c-3 -3 -20 -10 -38 -15 -19 -5 -29 -6 -24 -1 12 12 74 27 62 16z
m-943 -65 c-24 -26 -32 -18 -9 9 10 11 20 18 23 16 2 -3 -4 -14 -14 -25z m842
14 c-3 -3 -12 -4 -19 -1 -8 3 -5 6 6 6 11 1 17 -2 13 -5z m-40 -10 c-3 -3 -12
-4 -19 -1 -8 3 -5 6 6 6 11 1 17 -2 13 -5z m-20 -20 c-3 -3 -12 -4 -19 -1 -8
3 -5 6 6 6 11 1 17 -2 13 -5z m-902 -53 c-3 -6 -11 -11 -16 -11 -5 0 -4 6 3
14 14 16 24 13 13 -3z m985 -25 c0 -2 -13 -9 -30 -15 -35 -12 -41 -5 -7 9 25
10 37 12 37 6z m-230 -30 c0 -3 -4 -8 -10 -11 -5 -3 -10 -1 -10 4 0 6 5 11 10
11 6 0 10 -2 10 -4z m150 0 c0 -2 -7 -6 -15 -10 -8 -3 -15 -1 -15 4 0 6 7 10
15 10 8 0 15 -2 15 -4z m-230 -31 c-7 -8 -18 -15 -24 -15 -6 0 -2 7 8 15 25
19 32 19 16 0z m185 6 c-6 -5 -21 -12 -35 -15 l-25 -7 25 15 c28 17 50 21 35
7z m25 -18 c-8 -3 -24 -10 -35 -15 -20 -9 -20 -9 -1 6 11 9 27 16 35 15 14 0
14 -1 1 -6z m-60 -27 c0 -3 -25 -21 -55 -41 -30 -20 -65 -49 -78 -64 -12 -15
-31 -30 -41 -34 -10 -4 -16 -12 -14 -19 2 -6 -7 -23 -21 -38 -15 -14 -41 -44
-59 -65 -18 -22 -28 -30 -22 -17 6 12 8 22 4 22 -4 0 5 9 20 21 21 16 24 24
16 35 -12 14 -4 38 9 29 5 -2 26 16 47 40 21 25 43 45 48 45 6 0 40 20 75 45
65 45 71 49 71 41z m945 -6 c4 -6 -17 -9 -57 -8 l-63 1 55 7 c30 4 56 7 57 8
1 1 5 -2 8 -8z m-128 -6 c-3 -3 -12 -4 -19 -1 -8 3 -5 6 6 6 11 1 17 -2 13 -5z
m207 -15 c8 -9 6 -9 -8 -2 -10 6 -27 8 -37 6 -11 -3 -19 0 -19 6 0 14 49 6 64
-10z m-1260 -11 c-10 -13 -31 -36 -46 -53 -74 -82 -98 -114 -98 -126 0 -8 -8
-25 -17 -38 -10 -15 -11 -21 -3 -16 9 5 11 4 6 -3 -4 -7 -13 -12 -20 -12 -8 0
-19 -7 -26 -15 -15 -18 1 -20 19 -2 11 10 13 9 7 -1 -4 -6 -21 -19 -37 -28
-16 -8 -34 -25 -40 -37 -5 -12 -21 -37 -34 -56 -14 -18 -22 -38 -18 -44 4 -6
1 -7 -7 -2 -10 6 -12 4 -6 -11 4 -10 4 -15 0 -11 -14 14 -78 -156 -89 -236 -3
-26 -10 -45 -16 -42 -5 4 -9 -10 -9 -30 0 -20 -3 -34 -7 -32 -9 6 -10 -263 -2
-278 4 -5 3 -30 -1 -55 -7 -40 -8 -41 -9 -12 0 18 -5 31 -9 28 -4 -2 -7 55 -7
127 0 80 -3 135 -10 140 -7 6 -6 10 3 14 14 5 17 53 2 53 -5 0 -4 18 4 43 15
51 35 89 36 68 0 -8 2 -12 5 -9 3 3 1 18 -5 34 -6 16 -8 25 -4 21 4 -3 13 1
20 11 19 24 17 40 -2 16 -14 -18 -15 -18 -8 6 8 31 24 50 24 30 1 -21 23 19
26 45 1 11 3 21 4 23 2 1 3 5 4 10 3 14 39 77 57 101 10 13 16 27 13 32 -3 5
-1 9 4 9 6 0 23 20 40 45 16 24 32 42 36 40 3 -3 1 1 -5 8 -8 9 -17 4 -40 -23
-16 -19 -29 -40 -29 -47 0 -7 -5 -12 -12 -10 -6 1 -17 -8 -23 -21 -7 -13 -16
-23 -19 -22 -15 2 -156 -199 -156 -223 0 -4 -8 -16 -17 -26 -29 -31 -58 -75
-55 -83 1 -5 -3 -8 -8 -8 -5 0 -9 -3 -9 -7 3 -20 -2 -34 -11 -28 -11 7 20 72
91 191 27 45 49 85 49 89 0 4 15 24 33 44 17 21 48 57 67 81 65 81 153 168
165 164 6 -3 18 2 25 11 11 13 10 14 -4 9 -26 -10 -18 4 12 20 15 8 59 46 97
85 66 66 110 97 69 49z m134 -3 c-23 -27 -34 -33 -22 -12 14 23 26 37 35 37 5
0 -1 -11 -13 -25z m-1008 -17 c0 -18 -2 -20 -9 -8 -6 8 -7 18 -5 22 9 14 14 9
14 -14z m880 -43 c-7 -9 -15 -13 -17 -11 -6 6 20 36 26 30 2 -2 -2 -10 -9 -19z
m259 -1 c-13 -7 -31 -13 -40 -14 -9 0 -28 -9 -41 -20 -14 -10 -27 -17 -30 -15
-3 3 -5 -1 -5 -9 0 -11 6 -10 26 4 14 10 40 21 56 24 l30 5 -29 -13 c-20 -9
-25 -15 -15 -19 8 -3 -1 -6 -18 -6 -18 -1 -33 -5 -33 -10 0 -5 -11 -11 -25
-13 -25 -5 -34 5 -15 17 6 4 8 10 5 15 -3 4 2 13 10 20 8 7 15 10 15 7 0 -3
26 7 57 23 56 27 101 31 52 4z m41 -14 c-8 -5 -22 -9 -30 -9 -10 0 -8 3 5 9
27 12 43 12 25 0z m1075 -10 c10 -11 16 -20 13 -20 -3 0 -13 9 -23 20 -10 11
-16 20 -13 20 3 0 13 -9 23 -20z m-1499 -75 c-9 -9 -16 -13 -16 -8 0 12 22 34
28 28 2 -2 -3 -11 -12 -20z m2 -107 c-8 -12 -21 -24 -29 -27 -8 -2 -3 8 11 22
31 33 37 34 18 5z m-887 -23 c-1 -12 -41 -16 -41 -4 0 8 21 18 33 15 5 -1 8
-6 8 -11z m826 -55 c-2 -11 -9 -26 -15 -32 -7 -7 -12 -20 -12 -29 0 -10 -5
-21 -10 -24 -13 -8 -77 -134 -97 -190 -20 -57 -39 -242 -38 -365 1 -58 -1
-116 -5 -130 -6 -23 -7 -21 -13 15 -25 141 -15 334 23 443 10 29 14 50 9 47
-5 -4 -9 -13 -9 -21 0 -8 -4 -13 -9 -10 -11 7 -10 17 8 69 7 20 17 37 23 37 6
0 5 -6 -2 -15 -10 -13 -11 -18 -1 -28 10 -9 11 -8 5 7 -5 13 -4 17 3 13 7 -4
10 5 8 27 -1 22 4 37 16 44 14 9 16 7 13 -11 -4 -21 -4 -21 5 -2 5 11 5 27 1
35 -6 10 3 27 28 55 20 22 40 39 45 37 5 -1 6 2 2 8 -3 5 0 16 7 24 17 20 18
20 15 -4z m-192 -340 c3 -5 1 -10 -4 -10 -6 0 -11 5 -11 10 0 6 2 10 4 10 3 0
8 -4 11 -10z m-13 -37 c-5 -10 -9 -32 -10 -48 -1 -17 -8 -74 -15 -128 -8 -53
-11 -97 -8 -97 3 0 6 -19 6 -43 0 -23 6 -54 13 -69 10 -23 10 -27 -2 -22 -9 3
-17 25 -21 52 -3 26 -7 57 -9 70 -9 63 27 302 45 302 6 0 6 -7 1 -17z m-242
-60 c0 -5 -10 -19 -21 -33 l-20 -25 16 33 c15 30 25 41 25 25z m197 -55 c-3
-8 -6 -5 -6 6 -1 11 2 17 5 13 3 -3 4 -12 1 -19z m-251 -57 c-9 -16 -16 -37
-16 -46 0 -8 -4 -15 -10 -15 -5 0 -10 2 -10 5 0 10 44 94 48 91 2 -2 -4 -18
-12 -35z m191 17 c-3 -8 -6 -5 -6 6 -1 11 2 17 5 13 3 -3 4 -12 1 -19z m50
-50 c-3 -8 -6 -5 -6 6 -1 11 2 17 5 13 3 -3 4 -12 1 -19z m-60 -10 c-3 -8 -6
-5 -6 6 -1 11 2 17 5 13 3 -3 4 -12 1 -19z m-228 -78 c-10 -21 -19 -48 -19
-59 0 -11 -4 -23 -10 -26 -5 -3 -7 -20 -5 -38 l5 -32 -10 29 c-6 18 -6 36 0
47 6 10 10 24 10 32 0 22 29 87 39 87 5 0 1 -18 -10 -40z m298 -122 c-3 -8 -6
-5 -6 6 -1 11 2 17 5 13 3 -3 4 -12 1 -19z m-408 -204 c-6 -16 -12 -77 -13
-135 0 -59 -4 -102 -8 -96 -4 6 -9 -11 -11 -38 -2 -28 -2 9 0 80 4 114 25 236
39 222 3 -2 -1 -17 -7 -33z m2036 6 c3 -5 1 -10 -4 -10 -6 0 -11 5 -11 10 0 6
2 10 4 10 3 0 8 -4 11 -10z m-1002 -34 c4 -10 1 -13 -9 -9 -7 3 -14 9 -14 14
0 14 17 10 23 -5z m-666 -48 c-3 -7 -5 -2 -5 12 0 14 2 19 5 13 2 -7 2 -19 0
-25z m180 -50 c-3 -7 -5 -2 -5 12 0 14 2 19 5 13 2 -7 2 -19 0 -25z m-548
-180 l-2 -43 -6 35 c-7 33 -5 50 5 50 2 0 3 -19 3 -42z m-22 -70 c-3 -7 -5 -2
-5 12 0 14 2 19 5 13 2 -7 2 -19 0 -25z m10 -55 c-3 -10 -5 -4 -5 12 0 17 2
24 5 18 2 -7 2 -21 0 -30z m2993 -47 c4 -21 4 -36 -1 -36 -5 0 -9 8 -9 18 0 9
-3 28 -7 42 -3 14 -3 22 1 18 4 -3 11 -23 16 -42z m-73 -296 c-4 -31 -17 -54
-17 -29 0 18 11 59 16 59 2 0 2 -14 1 -30z m-1519 -51 c28 -7 52 -16 52 -21 0
-4 -4 -8 -9 -8 -5 0 -11 -10 -14 -22 -4 -12 -9 -19 -12 -16 -4 3 -2 16 5 27 9
18 8 21 -7 22 -10 1 -22 0 -28 -1 -38 -10 -74 -7 -79 6 -3 8 -12 12 -18 9 -7
-4 -4 1 6 9 11 9 27 14 35 12 9 -2 40 -10 69 -17z m220 3 c-9 -2 -20 -13 -24
-24 -6 -20 -7 -20 -17 -3 -9 17 -11 17 -22 2 -11 -16 -13 -15 -30 3 -17 18
-16 19 6 24 40 9 83 12 94 7 6 -3 2 -7 -7 -9z m1307 -49 c-7 -17 -8 -17 -15 2
-5 11 -9 27 -9 35 -1 12 2 11 15 -2 11 -11 14 -23 9 -35z m-1416 18 c17 -11
10 -34 -13 -37 -13 -2 -14 1 -7 10 7 9 7 16 -1 24 -14 14 1 16 21 3z m1392
-99 c11 -55 8 -96 -18 -211 -4 -15 -2 -22 5 -17 6 3 12 0 15 -6 2 -7 6 4 8 24
3 20 1 34 -3 32 -10 -7 -9 15 2 41 l9 20 1 -20 1 -20 10 20 c7 15 8 10 6 -22
-1 -24 2 -43 6 -43 5 0 5 -6 0 -12 -6 -7 -13 -26 -17 -42 -10 -39 -56 -98 -72
-92 -17 6 -38 -30 -28 -47 4 -6 4 -9 -1 -5 -4 4 -16 -4 -27 -17 -20 -26 -102
-56 -147 -54 -15 0 -20 3 -11 6 21 8 70 55 70 67 1 6 9 29 20 51 11 22 19 59
20 82 0 23 5 45 10 48 6 3 10 -3 10 -14 0 -12 3 -21 8 -21 4 0 7 23 7 50 0 28
5 54 12 58 6 4 15 36 19 72 l7 65 14 -34 c19 -45 27 -33 12 17 -9 32 -9 46 2
70 18 42 35 26 50 -46z m68 -1 c4 -34 4 -64 0 -67 -5 -3 -6 -19 -2 -37 4 -23
3 -29 -6 -22 -13 13 -27 115 -23 169 5 56 22 32 31 -43z m-1639 -17 c0 -23 -2
-24 -15 -10 -8 8 -15 19 -15 25 0 6 7 11 15 11 9 0 15 -10 15 -26z m-1273 -35
c-22 -11 -41 -18 -44 -15 -3 3 10 12 28 20 50 21 60 18 16 -5z m1263 -13 c0
-7 -7 -19 -15 -26 -16 -13 -20 -3 -9 24 8 20 24 21 24 2z m1310 -36 c0 -5 -2
-10 -4 -10 -3 0 -8 5 -11 10 -3 6 -1 10 4 10 6 0 11 -4 11 -10z m-2093 -62
c-3 -7 -5 -2 -5 12 0 14 2 19 5 13 2 -7 2 -19 0 -25z m759 6 c-3 -9 -6 -18 -6
-20 0 -3 -4 -3 -10 1 -11 7 -2 35 12 35 6 0 7 -7 4 -16z m545 -10 c6 -8 17
-14 23 -14 7 0 26 -15 43 -32 36 -37 62 -138 37 -138 -15 0 -124 -105 -124
-119 0 -5 -13 -12 -30 -16 -16 -4 -30 -10 -30 -15 0 -4 -7 -11 -16 -14 -8 -3
-12 -2 -9 4 3 6 -1 7 -9 4 -9 -3 -16 -10 -16 -14 0 -7 -64 -19 -115 -22 -11
-1 -23 -6 -26 -10 -5 -8 -53 -10 -134 -8 -43 1 -109 -11 -124 -23 -10 -8 -13
-9 -8 0 5 8 -3 13 -25 15 -32 3 -33 4 -30 43 5 64 51 238 71 265 9 14 21 34
25 45 7 20 7 20 24 -1 30 -37 130 -61 228 -55 23 1 124 70 124 85 0 5 8 16 17
25 20 19 86 16 104 -5z m-1327 -127 c3 -31 2 -59 -3 -62 -5 -3 -7 5 -4 17 4
17 2 19 -5 9 -7 -10 -10 0 -9 35 1 27 -1 63 -6 79 l-7 30 15 -26 c8 -15 17
-51 19 -82z m237 -204 c13 -16 12 -17 -3 -4 -17 13 -22 21 -14 21 2 0 10 -8
17 -17z m1864 7 l30 -8 -35 -1 c-19 0 -42 4 -50 9 -12 8 -11 10 5 9 11 -1 34
-5 50 -9z m-2326 -86 c-14 -18 -24 -11 -15 11 3 9 11 13 16 10 8 -5 7 -11 -1
-21z m-43 -33 c-4 -5 -1 -11 6 -13 8 -3 6 -6 -4 -10 -11 -5 -15 -2 -13 10 5
23 4 22 11 22 3 0 3 -4 0 -9z m604 -2151 c0 -5 -5 -10 -11 -10 -5 0 -7 5 -4
10 3 6 8 10 11 10 2 0 4 -4 4 -10z m116 -45 c-4 -14 -2 -25 4 -25 5 0 10 -4
10 -10 0 -5 -7 -10 -15 -10 -15 0 -22 50 -8 63 12 13 15 7 9 -18z m755 -32
c-5 -10 -17 -27 -26 -38 -16 -19 -16 -19 -4 5 13 27 29 50 36 50 2 0 -1 -8 -6
-17z m-944 1 c-3 -3 -12 -4 -19 -1 -8 3 -5 6 6 6 11 1 17 -2 13 -5z m660 -431
c-3 -10 -5 -4 -5 12 0 17 2 24 5 18 2 -7 2 -21 0 -30z"/>
<path d="M4191 5623 c-1 -17 16 -25 25 -12 4 7 3 9 -4 5 -5 -3 -13 0 -15 6 -4
9 -6 10 -6 1z"/>
<path d="M3746 5039 c-8 -42 0 -50 9 -9 4 17 5 34 2 36 -2 3 -7 -10 -11 -27z"/>
<path d="M3960 5335 c-7 -9 -10 -18 -7 -21 3 -3 10 4 17 15 13 25 8 27 -10 6z"/>
<path d="M6222 3364 c4 -21 22 -23 26 -1 2 10 -3 17 -13 17 -10 0 -15 -6 -13
-16z"/>
<path d="M6140 3178 c0 -21 2 -38 4 -38 9 0 12 50 5 62 -6 8 -9 -1 -9 -24z"/>
<path d="M6222 3185 c-7 -15 -11 -30 -8 -32 7 -7 28 36 24 49 -2 6 -9 -2 -16
-17z"/>
<path d="M3964 6324 c-18 -14 -18 -14 6 -3 31 14 36 19 24 19 -6 0 -19 -7 -30
-16z"/>
<path d="M3848 6267 c-25 -17 -74 -53 -107 -79 -34 -27 -65 -48 -69 -48 -5 0
-35 -24 -68 -54 -44 -41 -56 -57 -48 -66 9 -9 17 -5 33 15 12 17 27 25 36 21
17 -6 21 -26 5 -26 -5 0 -10 -6 -10 -12 1 -7 9 -3 19 9 11 13 17 31 14 43 -3
11 0 20 6 20 6 0 8 7 4 17 -5 12 -3 14 7 8 8 -5 11 -4 7 2 -5 9 20 26 45 32 4
1 18 11 31 24 44 40 79 67 87 67 12 0 64 49 58 55 -2 2 -25 -10 -50 -28z
m-204 -182 c-4 -8 -10 -15 -15 -15 -4 0 -6 7 -3 15 4 8 10 15 15 15 4 0 6 -7
3 -15z"/>
<path d="M3638 5993 c7 -3 16 -2 19 1 4 3 -2 6 -13 5 -11 0 -14 -3 -6 -6z"/>
<path d="M3461 5894 c0 -11 3 -14 6 -6 3 7 2 16 -1 19 -3 4 -6 -2 -5 -13z"/>
<path d="M4138 4923 c7 -3 16 -2 19 1 4 3 -2 6 -13 5 -11 0 -14 -3 -6 -6z"/>
<path d="M4620 4701 c0 -6 5 -13 10 -16 6 -3 10 1 10 9 0 9 -4 16 -10 16 -5 0
-10 -4 -10 -9z"/>
<path d="M4050 4635 c7 -8 18 -15 24 -15 6 0 5 4 -3 9 -11 7 -11 9 0 14 8 3 3
6 -10 6 -20 1 -21 -1 -11 -14z"/>
<path d="M4278 4623 c7 -3 16 -2 19 1 4 3 -2 6 -13 5 -11 0 -14 -3 -6 -6z"/>
<path d="M4383 4623 c9 -2 23 -2 30 0 6 3 -1 5 -18 5 -16 0 -22 -2 -12 -5z"/>
<path d="M4440 4610 c8 -5 20 -10 25 -10 6 0 3 5 -5 10 -8 5 -19 10 -25 10 -5
0 -3 -5 5 -10z"/>
<path d="M4350 4335 c-38 -9 -46 -13 -25 -13 17 0 48 5 70 13 50 16 27 16 -45
0z"/>
<path d="M4877 4148 c-49 -56 -77 -132 -58 -151 6 -6 29 -10 52 -8 27 1 53 -5
76 -19 76 -45 165 -32 171 24 2 15 0 26 -5 23 -5 -3 -10 10 -10 29 -1 23 -11
46 -32 69 -17 20 -31 40 -31 46 0 13 -62 39 -94 39 -16 0 -38 -16 -69 -52z
m26 -83 c-3 -9 -8 -14 -10 -11 -3 3 -2 9 2 15 9 16 15 13 8 -4z"/>
<path d="M4665 4080 c-18 -20 -18 -21 3 -50 27 -36 27 -36 -3 -44 -14 -4 -25
-10 -25 -15 0 -17 29 -20 44 -6 8 8 25 15 38 15 29 0 41 9 55 41 8 20 8 32 -1
50 -16 33 -84 39 -111 9z"/>
<path d="M2860 3376 c0 -2 7 -6 15 -10 8 -3 15 -1 15 4 0 6 -7 10 -15 10 -8 0
-15 -2 -15 -4z"/>
<path d="M3205 3260 c-3 -5 -1 -10 4 -10 6 0 11 5 11 10 0 6 -2 10 -4 10 -3 0
-8 -4 -11 -10z"/>
<path d="M2865 3020 c-8 -16 -15 -32 -15 -37 0 -10 25 27 33 50 10 27 -1 20
-18 -13z"/>
<path d="M6156 2975 c-11 -8 -15 -15 -10 -15 6 0 19 7 30 15 10 8 15 14 9 14
-5 0 -19 -6 -29 -14z"/>
<path d="M2832 2850 c0 -30 6 -73 13 -95 14 -39 14 -39 8 -5 -3 19 -9 62 -13
95 l-7 60 -1 -55z"/>
<path d="M5745 2680 c-3 -5 1 -10 9 -10 9 0 16 5 16 10 0 6 -4 10 -9 10 -6 0
-13 -4 -16 -10z"/>
<path d="M4477 2583 c-4 -3 -7 -13 -7 -22 1 -13 3 -13 11 2 11 19 8 33 -4 20z"/>
<path d="M3833 2370 c-31 -3 -60 -13 -73 -25 -32 -28 -70 -109 -70 -146 0 -30
33 -114 102 -257 42 -89 45 -72 3 24 -19 43 -35 88 -35 100 0 17 25 33 126 83
69 35 128 60 131 57 3 -3 23 22 45 55 30 44 48 61 69 66 51 10 31 20 -63 31
-134 16 -177 18 -235 12z"/>
<path d="M4610 2240 c0 -13 18 -22 24 -11 3 5 -1 11 -9 15 -8 3 -15 1 -15 -4z"/>
<path d="M3166 2165 c-9 -26 -7 -32 5 -12 6 10 9 21 6 23 -2 3 -7 -2 -11 -11z"/>
<path d="M3162 2110 c0 -14 2 -19 5 -12 2 6 2 18 0 25 -3 6 -5 1 -5 -13z"/>
<path d="M3152 2050 c0 -14 2 -19 5 -12 2 6 2 18 0 25 -3 6 -5 1 -5 -13z"/>
<path d="M7085 1500 c3 -5 11 -10 16 -10 6 0 7 5 4 10 -3 6 -11 10 -16 10 -6
0 -7 -4 -4 -10z"/>
<path d="M6174 1467 c-6 -7 -33 -32 -61 -56 -62 -53 -71 -85 -34 -117 l26 -23
27 26 c26 25 49 79 63 151 7 33 -2 41 -21 19z"/>
<path d="M4947 1320 c-3 -8 -13 -39 -22 -67 -9 -29 -21 -53 -26 -53 -6 0 -7
-4 -4 -10 3 -5 1 -10 -4 -10 -6 0 -11 -5 -11 -12 0 -6 -10 -22 -22 -36 -13
-13 -23 -33 -24 -45 -1 -12 -4 -34 -8 -48 -5 -18 -3 -31 6 -39 8 -8 12 -32 10
-69 -3 -61 9 -94 28 -75 14 14 73 236 90 332 10 64 1 168 -13 132z"/>
<path d="M6229 1274 c-6 -33 -13 -70 -14 -84 -3 -47 -23 -70 -60 -70 -19 0
-35 -2 -35 -5 0 -3 -7 -50 -15 -106 -8 -55 -13 -110 -9 -123 5 -22 -3 -80 -41
-281 -9 -44 -20 -114 -25 -155 -14 -116 -59 -323 -72 -331 -16 -10 -39 1 -70
34 -22 23 -28 25 -28 12 0 -20 30 -72 73 -127 l29 -38 374 0 c239 0 373 4 369
10 -3 5 -18 7 -33 4 -39 -8 -120 30 -124 59 -2 13 -11 23 -23 25 -11 1 -40 5
-65 8 -25 4 -53 12 -63 19 -10 7 -27 10 -38 8 -18 -5 -20 -2 -17 28 3 28 -1
34 -22 40 -71 20 -157 2 -162 -34 -2 -12 -10 -22 -18 -22 -21 0 -60 64 -60 99
1 52 41 119 85 140 37 19 40 19 84 2 25 -10 62 -24 82 -31 19 -7 59 -30 89
-49 30 -20 77 -43 105 -52 27 -10 83 -32 124 -51 40 -18 78 -33 84 -33 18 0
144 -68 219 -119 72 -49 77 -51 145 -51 60 0 70 3 70 18 1 34 -87 102 -131
102 -18 0 -116 60 -134 82 -7 9 -23 13 -41 10 -35 -5 -80 24 -81 51 0 10 -5
17 -12 15 -7 -3 -37 3 -67 12 -44 14 -55 22 -58 41 -5 33 -23 48 -63 52 -19 2
-36 10 -39 18 -7 23 -23 28 -71 24 -25 -2 -53 -4 -62 -5 -11 0 -18 -8 -18 -19
0 -29 -26 -47 -46 -30 -46 38 -56 115 -24 179 19 38 62 70 93 70 10 0 22 49
46 188 18 103 35 199 38 214 4 23 0 30 -19 37 -48 18 -50 28 -34 183 5 55 5
56 -25 67 -16 6 -63 13 -103 17 l-74 7 -13 -59z m101 -24 c0 -5 -9 -10 -19
-10 -11 0 -23 5 -26 10 -4 6 5 10 19 10 14 0 26 -4 26 -10z m-10 -34 c0 -3 -4
-8 -10 -11 -5 -3 -10 -1 -10 4 0 6 5 11 10 11 6 0 10 -2 10 -4z m-85 -316 c17
-7 15 -9 -12 -9 -18 -1 -33 4 -33 9 0 12 17 12 45 0z m32 -56 c-3 -3 -12 -4
-19 -1 -8 3 -5 6 6 6 11 1 17 -2 13 -5z"/>
<path d="M6775 1269 c-4 -6 -5 -12 -2 -15 2 -3 7 2 10 11 7 17 1 20 -8 4z"/>
<path d="M6746 1203 c-6 -14 -5 -15 5 -6 7 7 10 15 7 18 -3 3 -9 -2 -12 -12z"/>
<path d="M7241 1153 c-9 -38 -15 -93 -27 -258 -3 -49 -1 -153 5 -229 7 -77 14
-181 17 -230 3 -50 9 -103 14 -118 12 -37 4 -40 -41 -18 -45 24 -61 26 -33 5
10 -8 16 -15 12 -15 -5 0 1 -10 11 -22 11 -13 29 -34 40 -47 15 -16 18 -28 11
-36 -7 -8 -3 -18 13 -32 38 -34 88 -65 94 -59 4 3 4 6 0 6 -5 0 24 56 92 175
13 22 29 44 37 48 8 4 14 13 14 19 0 6 7 20 17 30 9 10 11 18 5 18 -7 0 -9 7
-5 18 9 26 75 114 80 108 6 -6 45 63 46 81 0 10 4 10 14 1 7 -6 16 -8 20 -4 3
3 1 6 -6 6 -8 0 -11 6 -7 16 4 10 2 13 -7 8 -6 -4 -4 1 5 12 56 62 57 64 61
116 1 9 5 15 8 12 14 -8 21 17 8 32 -10 12 -9 13 3 9 9 -4 15 0 15 10 0 8 -9
15 -19 15 -10 0 -18 -4 -18 -10 0 -5 -9 -10 -19 -10 -11 0 -23 -5 -27 -12 -5
-7 -3 -8 6 -3 10 6 12 4 7 -8 -4 -10 -1 -17 5 -17 6 0 3 -8 -8 -19 -10 -10
-21 -15 -24 -11 -3 4 -11 2 -18 -6 -7 -8 -8 -14 -3 -14 13 0 -12 -49 -41 -80
-13 -14 -22 -28 -20 -32 1 -5 -3 -8 -9 -8 -5 0 -8 -4 -5 -9 3 -5 -6 -12 -19
-15 -14 -4 -23 -11 -20 -16 7 -11 -18 -40 -33 -40 -5 0 -9 -6 -10 -12 -2 -37
-14 -62 -34 -76 -36 -24 -118 -114 -112 -124 3 -4 2 -8 -3 -9 -4 0 -16 -2 -25
-4 -24 -4 -26 6 -28 145 -2 146 -3 160 -10 160 -3 0 -5 12 -6 28 -1 15 -4 52
-7 82 -17 171 -19 233 -8 330 7 58 15 115 18 128 3 12 1 22 -6 22 -5 0 -14
-17 -20 -37z"/>
<path d="M6723 1160 c-11 -16 -10 -18 2 -14 8 4 15 12 15 20 0 19 -3 18 -17
-6z"/>
<path d="M7283 1082 c-7 -30 -13 -70 -12 -90 1 -37 1 -37 15 13 8 28 13 68 12
90 l-3 40 -12 -53z"/>
<path d="M6687 1091 c-10 -19 -15 -36 -13 -38 6 -7 37 48 33 60 -2 6 -11 -4
-20 -22z"/>
<path d="M6586 884 c-9 -20 -15 -39 -12 -41 2 -3 14 14 24 36 11 23 17 41 13
41 -4 0 -15 -16 -25 -36z"/>
<path d="M6951 908 c-2 -29 20 -118 29 -118 4 0 2 26 -6 58 -19 72 -22 81 -23
60z"/>
<path d="M7990 915 c-1 -5 -4 -46 -5 -90 -1 -44 -6 -97 -10 -118 -4 -22 -3
-43 2 -48 5 -5 7 -31 4 -57 -8 -66 -3 -102 16 -102 12 0 14 7 8 38 -12 63 -13
67 -7 76 9 17 12 235 3 273 -5 21 -10 34 -11 28z"/>
<path d="M7728 859 c-17 -18 -17 -19 15 -19 22 0 28 3 18 9 -7 5 -10 14 -7 20
11 18 -7 11 -26 -10z"/>
<path d="M6551 804 c0 -11 3 -14 6 -6 3 7 2 16 -1 19 -3 4 -6 -2 -5 -13z"/>
<path d="M6782 768 c-21 -59 -9 -94 23 -68 18 15 18 35 2 74 l-12 28 -13 -34z"/>
<path d="M7435 746 c-4 -11 -6 -28 -5 -35 1 -8 -6 -21 -17 -29 -17 -13 -17
-14 0 -10 10 1 29 22 42 44 24 40 24 42 6 47 -13 3 -21 -2 -26 -17z"/>
<path d="M7385 650 c-3 -5 -1 -10 4 -10 6 0 11 5 11 10 0 6 -2 10 -4 10 -3 0
-8 -4 -11 -10z"/>
<path d="M3207 585 c-20 -49 52 -241 123 -330 39 -49 104 -181 95 -195 -12
-19 26 -60 56 -60 l28 0 -30 73 c-17 39 -53 118 -81 175 -45 93 -52 102 -77
102 -23 0 -30 6 -41 39 -7 22 -10 51 -6 65 4 18 -2 43 -24 86 -17 33 -32 60
-34 60 -2 0 -6 -7 -9 -15z"/>
<path d="M7942 505 c-7 -14 -12 -39 -12 -55 0 -17 -7 -34 -17 -40 -17 -11 -17
-11 0 -6 10 3 23 6 28 6 6 0 9 17 6 38 -2 20 0 45 5 55 5 10 8 21 5 23 -2 2
-9 -7 -15 -21z"/>
<path d="M7554 418 l-19 -21 30 18 c41 26 40 25 23 25 -8 0 -23 -10 -34 -22z"/>
<path d="M8000 430 c0 -5 5 -10 11 -10 5 0 7 5 4 10 -3 6 -8 10 -11 10 -2 0
-4 -4 -4 -10z"/>
<path d="M7930 360 c-10 -7 -12 -12 -4 -17 11 -8 34 -105 37 -160 1 -17 5 -29
8 -27 4 2 9 -5 12 -16 3 -11 13 -20 24 -20 17 1 17 1 1 14 -18 13 -26 32 -10
22 5 -3 9 2 9 10 0 9 -6 13 -15 9 -12 -4 -13 3 -7 41 4 32 3 44 -4 39 -6 -3
-11 0 -11 9 0 8 6 17 13 20 8 3 6 9 -7 20 -11 9 -15 16 -9 16 8 0 8 7 0 25
-13 28 -16 29 -37 15z"/>
<path d="M8008 323 c7 -3 16 -2 19 1 4 3 -2 6 -13 5 -11 0 -14 -3 -6 -6z"/>
<path d="M7900 298 c0 -4 7 -8 15 -8 8 0 15 4 15 8 0 5 -7 9 -15 9 -8 0 -15
-4 -15 -9z"/>
<path d="M5586 257 c3 -10 9 -15 12 -12 3 3 0 11 -7 18 -10 9 -11 8 -5 -6z"/>
<path d="M4930 236 c5 -14 17 -34 27 -46 10 -11 17 -24 15 -27 -2 -4 5 -10 15
-14 15 -7 16 -8 1 -8 -19 -1 -13 -41 6 -41 6 0 4 -5 -4 -10 -8 -5 -10 -10 -5
-10 6 0 11 -12 12 -27 1 -48 3 -53 17 -53 10 0 15 21 18 76 6 84 1 94 -56 124
-15 8 -32 25 -37 37 -5 13 -11 23 -14 23 -2 0 0 -11 5 -24z"/>
<path d="M5625 226 c19 -89 19 -89 4 -82 -8 4 -6 1 5 -8 10 -8 16 -22 13 -31
-4 -8 -2 -15 3 -15 5 0 13 -18 16 -40 9 -53 18 -43 15 15 -1 25 2 45 7 45 8 0
9 30 4 64 -1 6 -9 1 -18 -10 -8 -10 -13 -14 -11 -9 3 6 -6 30 -19 55 -20 36
-24 39 -19 16z"/>
<path d="M8000 240 c0 -5 5 -10 11 -10 5 0 7 5 4 10 -3 6 -8 10 -11 10 -2 0
-4 -4 -4 -10z"/>
<path d="M7997 209 c7 -7 15 -10 18 -7 3 3 -2 9 -12 12 -14 6 -15 5 -6 -5z"/>
<path d="M7895 150 c-3 -5 0 -10 9 -10 8 0 16 -6 19 -12 3 -7 4 -3 4 10 -1 22
-21 30 -32 12z"/>
<path d="M7740 140 c-13 -9 -13 -10 0 -10 8 0 22 5 30 10 13 9 13 10 0 10 -8
0 -22 -5 -30 -10z"/>
<path d="M7898 90 c-13 -14 -12 -18 9 -27 13 -6 23 -8 24 -5 0 4 2 16 4 28 5
25 -17 28 -37 4z"/>
<path d="M7995 99 c9 -13 -14 -41 -27 -33 -6 4 -8 -1 -4 -14 4 -12 2 -23 -5
-28 -8 -4 -9 -3 -5 4 16 27 -7 29 -45 4 l-41 -27 72 -3 c42 -2 78 2 84 8 7 7
5 10 -7 10 -9 0 -17 5 -17 10 0 6 4 10 9 10 5 0 11 9 14 20 3 11 1 20 -5 20
-5 0 -7 4 -4 9 3 5 -1 12 -10 15 -9 3 -12 2 -9 -5z"/>
<path d="M7685 50 c-7 -12 2 -12 30 0 19 8 19 9 -2 9 -12 1 -25 -3 -28 -9z"/>
<path d="M7656 17 c-15 -11 -14 -13 13 -15 24 -2 29 1 25 13 -7 18 -15 19 -38
2z"/>
</g>
</svg>
